<?xml version="1.0" standalone="no"?>
<!DOCTYPE svg PUBLIC "-//W3C//DTD SVG 20010904//EN"
 "http://www.w3.org/TR/2001/REC-SVG-20010904/DTD/svg10.dtd">
<svg version="1.0" xmlns="http://www.w3.org/2000/svg"
 width="1920.000000pt" height="1288.000000pt" viewBox="0 0 1920.000000 1288.000000"
 preserveAspectRatio="xMidYMid meet">

<g transform="translate(0.000000,1288.000000) scale(0.100000,-0.100000)"
fill="#eca4c27d" stroke="none">
<path d="M11872 12844 c-5 -11 -12 -45 -15 -77 -3 -32 -15 -78 -27 -103 -20
-40 -21 -50 -10 -88 10 -38 9 -55 -8 -122 -11 -44 -23 -86 -27 -95 -4 -11 8
-27 39 -53 54 -44 62 -65 42 -108 -21 -44 -70 -75 -134 -88 -71 -13 -85 -22
-121 -76 -47 -72 -40 -114 29 -183 37 -37 41 -45 36 -74 -13 -65 -12 -70 19
-80 45 -15 55 -26 55 -65 0 -27 -8 -44 -32 -69 -23 -24 -33 -44 -34 -69 0 -25
-10 -44 -33 -68 -28 -29 -30 -34 -16 -46 43 -35 -5 -130 -59 -116 -15 3 -26
11 -26 16 0 6 -4 10 -10 10 -15 0 -11 -52 5 -74 33 -43 10 -202 -39 -277 -44
-65 -27 -121 39 -133 40 -8 55 -30 55 -80 0 -34 2 -36 31 -36 24 0 43 -11 80
-47 57 -57 64 -98 26 -151 -21 -28 -23 -37 -15 -79 18 -98 21 -105 44 -115 31
-14 36 -33 20 -72 -15 -37 -50 -66 -79 -66 -22 0 -56 -71 -57 -119 0 -18 -9
-48 -20 -66 -18 -29 -18 -34 -5 -45 9 -8 25 -10 42 -5 16 4 47 7 69 7 32 -1
47 5 65 24 12 13 31 24 41 24 28 0 89 -34 122 -69 33 -35 72 -40 151 -20 55
14 85 7 116 -26 16 -16 35 -25 57 -25 50 0 69 14 76 60 6 37 11 43 51 61 24
11 47 24 50 29 12 19 66 10 125 -20 48 -24 61 -36 68 -62 l8 -33 19 30 c48 78
81 92 127 56 25 -20 48 -67 67 -138 9 -33 22 -49 54 -72 54 -37 68 -54 87
-105 12 -34 24 -45 66 -66 64 -31 84 -48 84 -69 0 -10 12 -28 26 -40 23 -20
26 -28 21 -65 -3 -23 -9 -50 -13 -59 -4 -12 1 -20 22 -27 42 -17 78 -4 105 38
l25 37 105 0 c100 0 107 1 138 28 19 16 45 27 61 27 18 0 43 11 62 28 57 49
82 62 118 62 41 0 68 24 90 78 7 18 26 40 43 49 42 21 133 14 172 -15 20 -14
40 -20 60 -17 17 2 38 4 47 4 18 1 48 27 48 42 0 5 -12 9 -27 9 -97 0 -164 56
-224 186 -22 49 -56 121 -75 161 -19 39 -34 80 -34 91 0 29 41 102 88 159 53
63 52 80 -14 196 -27 46 -51 106 -60 145 -31 142 -36 158 -50 179 -28 43 -53
52 -119 40 -104 -18 -151 22 -162 136 -3 37 -10 70 -14 73 -17 10 -85 -17
-143 -56 -73 -50 -151 -74 -207 -65 -53 9 -105 56 -121 107 -9 31 -20 44 -45
54 -51 22 -72 17 -131 -28 -52 -40 -59 -43 -118 -43 -107 0 -154 56 -127 150
27 93 27 108 -2 151 -22 32 -26 46 -21 82 3 23 9 62 12 86 6 42 4 47 -39 93
-69 74 -97 121 -97 162 0 89 71 156 201 191 46 12 90 27 97 32 6 6 12 25 12
43 0 54 -75 136 -201 221 -119 79 -159 141 -159 244 0 31 -13 74 -42 140 -55
124 -105 199 -148 222 -41 21 -122 24 -195 5 -32 -8 -66 -10 -95 -5 -122 21
-157 21 -168 2z"/>
<path d="M11750 12843 c-15 -2 -34 -18 -47 -38 -29 -44 -84 -81 -170 -112 -56
-21 -92 -27 -200 -31 l-132 -5 -68 33 c-78 38 -259 69 -249 43 3 -8 13 -38 21
-67 14 -49 14 -57 -1 -95 -22 -56 -87 -110 -202 -170 -225 -115 -352 -120
-405 -18 -16 31 -21 35 -42 27 -12 -5 -85 -9 -161 -9 -209 0 -228 -3 -296 -56
-100 -79 -147 -90 -223 -53 l-46 23 -67 -35 -67 -35 -36 -95 c-45 -120 -97
-223 -143 -282 -50 -67 -64 -97 -75 -169 -23 -137 -12 -216 38 -293 49 -75 39
-286 -17 -350 -22 -24 -90 -55 -122 -56 -49 -1 -52 -9 -35 -96 34 -171 35
-174 90 -234 34 -37 58 -75 70 -109 13 -41 23 -54 48 -65 58 -24 70 -57 56
-156 -4 -24 0 -26 66 -37 39 -7 111 -12 161 -11 102 3 117 -4 141 -61 8 -18
28 -45 44 -58 58 -49 75 -123 43 -184 -14 -28 -14 -32 2 -50 10 -11 33 -29 51
-40 27 -17 39 -19 61 -11 20 7 37 6 59 -3 29 -12 33 -11 54 11 12 13 28 24 35
24 7 0 26 11 42 25 27 22 39 25 113 25 83 1 84 1 104 32 11 17 32 41 48 52 26
19 30 19 69 6 28 -10 52 -29 73 -56 16 -23 44 -49 62 -59 57 -31 64 -77 22
-136 -10 -13 -5 -23 29 -53 23 -21 44 -46 47 -57 4 -13 16 -19 36 -19 19 0 37
-9 51 -25 21 -25 61 -33 84 -17 7 4 17 26 23 50 9 33 19 46 45 59 32 15 37 15
78 -5 23 -11 59 -27 79 -35 23 -9 40 -25 48 -45 16 -39 51 -46 119 -22 37 13
68 17 102 13 74 -9 95 0 115 49 21 55 88 125 142 148 45 20 60 48 43 80 -9 17
-7 28 8 53 10 18 22 54 25 80 11 76 40 123 92 146 25 11 45 23 45 26 0 4 -11
20 -25 37 -14 16 -25 40 -25 52 0 12 -5 27 -11 33 -5 5 -11 35 -12 66 -2 44 3
62 21 86 30 41 28 63 -8 83 -17 9 -30 24 -30 33 0 13 -7 15 -34 10 -28 -6 -36
-3 -50 16 -9 13 -16 40 -16 61 0 28 -4 38 -15 38 -81 0 -136 128 -84 194 53
67 76 201 44 256 -20 35 -18 80 5 118 23 37 52 42 73 11 9 -13 17 -16 22 -10
3 6 -1 21 -9 33 -22 32 -20 41 19 88 25 30 33 48 29 64 -4 17 5 35 35 70 23
26 41 49 41 52 0 3 -20 13 -45 24 -55 24 -68 51 -49 99 15 36 12 47 -22 74
-28 22 -64 95 -64 130 0 43 24 91 71 140 38 39 53 47 108 58 61 12 121 47 121
72 0 6 -20 30 -45 53 -52 47 -54 60 -25 152 22 72 25 115 9 160 -9 25 -6 38
14 79 16 32 26 71 29 116 4 72 7 69 -52 60z"/>
<path d="M3110 12391 c-102 -22 -198 -63 -206 -88 -18 -53 -48 -103 -84 -140
-46 -48 -182 -154 -243 -189 -79 -45 -181 -23 -247 53 l-32 36 -60 -29 c-65
-31 -118 -83 -118 -114 0 -11 14 -44 30 -73 35 -63 39 -128 15 -246 -26 -123
5 -216 138 -410 97 -141 131 -202 156 -285 26 -86 27 -167 1 -224 -16 -36 -29
-47 -75 -67 -52 -23 -55 -27 -55 -61 0 -20 7 -51 16 -69 14 -30 19 -33 49 -28
50 8 99 -13 159 -68 44 -40 61 -49 90 -49 53 0 99 -23 127 -61 13 -19 39 -47
57 -63 40 -36 57 -67 67 -126 21 -130 105 -193 198 -152 71 31 98 34 137 15
24 -13 38 -29 46 -53 8 -25 21 -40 49 -54 l39 -19 26 31 c14 18 41 37 58 43
40 14 40 22 1 56 -45 41 -58 73 -55 134 4 84 32 117 81 98 32 -12 92 -10 103
4 7 8 7 25 -1 56 -11 40 -10 44 12 62 30 24 43 24 66 -1 27 -30 33 -25 28 23
-7 62 15 79 120 87 45 3 92 12 104 18 55 30 134 3 153 -52 7 -22 19 -36 34
-40 12 -3 28 -17 36 -31 19 -36 33 -31 26 10 -5 26 0 51 22 102 17 38 33 78
37 91 4 13 20 39 37 58 25 28 37 34 69 34 46 0 48 11 14 52 -18 21 -25 41 -25
71 0 63 18 89 85 123 75 38 81 60 32 109 -27 27 -43 35 -71 35 -41 0 -76 28
-76 60 0 38 44 70 95 70 31 0 47 5 51 15 9 23 -24 65 -64 82 -52 21 -71 40
-82 84 -6 21 -21 51 -34 66 -13 15 -33 47 -44 70 -19 36 -29 44 -78 60 -68 21
-90 47 -104 122 -5 30 -17 59 -25 65 -27 21 -35 62 -21 110 12 40 12 47 -6 75
-19 29 -19 33 -4 56 10 16 26 25 42 25 19 0 28 8 39 34 8 18 25 40 38 49 33
21 40 65 16 96 -23 28 -25 88 -5 136 l14 33 -51 7 c-29 4 -89 18 -135 31 -100
29 -146 30 -203 4 -61 -27 -92 -25 -189 16 -80 34 -93 37 -210 40 -96 3 -145
-1 -210 -15z"/>
<path d="M4350 12340 c-25 -4 -63 -13 -85 -19 -22 -6 -55 -11 -73 -11 -29 0
-35 -5 -52 -42 -25 -55 -25 -74 0 -105 34 -43 19 -136 -25 -161 -9 -4 -23 -24
-33 -43 -11 -23 -28 -38 -50 -45 -29 -9 -31 -12 -18 -23 19 -16 20 -50 5 -105
-10 -35 -8 -41 15 -65 15 -16 28 -43 32 -71 7 -52 28 -90 49 -90 44 0 97 -34
122 -79 14 -25 35 -56 45 -67 10 -12 27 -43 37 -70 16 -41 27 -54 71 -79 76
-43 110 -114 76 -160 -10 -14 -31 -21 -72 -25 -62 -5 -90 -30 -34 -30 61 0
131 -58 145 -119 10 -49 -13 -82 -80 -116 -56 -28 -60 -33 -63 -68 -3 -29 3
-45 22 -68 49 -57 24 -119 -47 -119 -39 0 -72 -31 -84 -79 -3 -14 -17 -47 -30
-73 -18 -37 -22 -57 -17 -87 5 -31 2 -43 -15 -60 -29 -29 -65 -27 -91 6 -12
15 -34 33 -49 39 -18 8 -31 22 -35 40 -4 16 -12 35 -18 41 -13 16 -52 17 -81
2 -12 -7 -56 -15 -99 -20 -94 -9 -101 -12 -86 -44 27 -60 -22 -107 -79 -75
l-32 19 9 -25 c15 -40 12 -53 -20 -86 -29 -28 -34 -30 -96 -27 l-66 4 -3 -49
c-3 -46 0 -52 40 -92 23 -24 45 -53 48 -64 7 -27 -26 -67 -63 -75 -45 -10 -56
-38 -31 -79 17 -27 21 -50 21 -117 0 -46 5 -100 10 -120 9 -33 95 -139 113
-139 4 0 7 18 7 40 0 48 23 66 91 73 25 3 58 12 72 21 19 13 57 18 153 22 71
2 138 7 149 10 11 3 43 28 71 55 l51 50 91 5 c56 2 93 0 97 -6 3 -5 30 -10 59
-10 64 0 78 -13 86 -79 7 -62 31 -65 91 -13 54 47 80 62 112 62 27 0 77 35 77
54 0 19 51 62 100 83 38 17 52 32 92 99 47 81 74 107 143 141 22 11 54 28 72
39 26 15 38 17 71 8 36 -9 42 -8 72 18 51 42 91 52 135 33 21 -8 39 -15 41
-15 2 0 4 18 4 39 0 31 11 56 51 115 49 72 51 78 43 119 -4 23 -7 90 -5 149 2
89 -1 113 -17 145 -22 44 -36 124 -27 153 8 27 55 50 100 50 28 0 37 5 44 23
5 12 21 33 35 46 20 19 26 34 26 68 0 55 22 98 60 118 34 18 37 33 14 77 -15
29 -15 34 0 63 9 16 30 39 47 50 31 21 31 25 8 82 -25 62 15 117 70 97 28 -11
29 -10 35 19 4 17 17 43 30 57 21 22 23 32 19 77 -7 66 -13 69 -163 65 -65 -2
-133 2 -156 9 -86 23 -134 88 -149 201 -11 86 -16 88 -210 98 -94 5 -185 13
-204 19 -38 12 -111 57 -111 69 0 4 -11 20 -25 35 -24 25 -31 27 -111 27 -102
0 -166 20 -255 81 -72 49 -183 97 -238 103 -20 3 -56 1 -81 -4z"/>
<path d="M6638 11755 c-41 -27 -86 -46 -170 -70 -32 -8 -58 -19 -58 -24 0 -4
-25 -35 -55 -69 -83 -91 -168 -114 -243 -66 -34 22 -56 2 -47 -43 12 -67 -29
-93 -86 -52 -27 19 -29 19 -29 2 1 -10 7 -29 15 -43 27 -46 19 -75 -32 -117
-46 -39 -46 -40 -30 -64 31 -43 22 -81 -28 -126 -42 -38 -45 -43 -45 -91 0
-43 -5 -57 -30 -85 -16 -19 -30 -39 -30 -44 0 -23 -48 -53 -86 -53 -60 0 -66
-8 -54 -70 6 -30 17 -64 26 -77 12 -19 14 -49 13 -141 -2 -76 2 -125 9 -139
20 -37 -2 -100 -65 -182 -43 -56 -44 -104 -6 -164 15 -23 34 -46 41 -51 20
-12 43 -72 35 -93 -4 -10 -17 -32 -30 -49 -21 -28 -22 -33 -8 -44 9 -8 22 -28
30 -46 9 -22 26 -38 50 -48 26 -11 41 -27 55 -58 11 -24 31 -56 45 -73 19 -23
27 -27 37 -17 6 6 27 12 45 12 37 0 61 -28 72 -83 5 -21 14 -33 26 -35 44 -8
57 -59 29 -114 -15 -28 -14 -31 7 -54 27 -29 28 -80 1 -107 -12 -11 -39 -21
-67 -24 -43 -5 -46 -8 -41 -30 4 -15 -2 -38 -16 -64 l-23 -40 27 -20 c16 -12
33 -40 44 -72 20 -61 32 -80 50 -73 7 3 25 -5 39 -16 20 -16 26 -28 23 -48 -3
-22 2 -31 22 -44 32 -19 81 -8 136 29 49 33 94 40 173 26 55 -9 76 -8 126 5
106 27 112 28 150 4 l36 -22 27 25 c19 17 43 27 83 31 51 6 59 5 86 -18 30
-25 32 -25 67 -11 19 8 51 15 70 15 20 0 50 9 68 20 18 11 43 20 55 20 16 0
27 10 37 35 12 28 20 35 44 35 46 0 101 -70 115 -148 4 -19 16 -45 27 -59 26
-33 25 -67 -1 -103 l-22 -28 22 -28 c11 -14 21 -39 21 -54 0 -38 38 -53 145
-56 117 -3 201 19 221 57 18 35 63 46 105 25 l31 -15 -7 27 c-3 15 -13 35 -22
44 -8 9 -17 43 -20 75 -5 52 -3 62 18 87 14 15 49 40 79 54 46 23 59 35 80 77
14 28 35 64 48 79 28 37 28 61 -3 105 -22 33 -25 49 -30 170 -4 119 -3 138 14
166 10 17 24 48 31 69 11 34 10 40 -10 61 -12 12 -32 56 -45 96 -16 49 -28 73
-37 70 -7 -2 -32 -6 -54 -8 -33 -4 -46 -1 -63 16 -26 26 -27 51 -1 101 18 36
19 43 7 68 -25 48 -27 79 -12 138 10 39 26 70 49 94 41 43 56 71 56 104 0 20
-5 26 -21 26 -60 0 -76 48 -39 120 11 22 20 43 20 48 0 5 -17 29 -38 53 -47
54 -82 114 -82 140 0 10 10 27 21 37 46 37 59 57 59 90 0 18 5 42 11 53 8 16
5 29 -16 65 -28 48 -33 50 -81 32 -43 -15 -70 3 -108 72 -25 46 -28 60 -24
120 4 76 20 103 76 127 33 14 52 45 52 88 0 18 -7 25 -29 30 -16 3 -47 21 -68
40 -46 39 -57 72 -73 209 -13 109 -21 126 -61 126 -55 0 -97 -28 -137 -92 -81
-131 -99 -152 -142 -175 -86 -46 -166 -22 -219 64 -52 85 -52 85 -150 83 -144
-5 -150 -4 -191 38 -27 27 -39 49 -44 81 -7 46 -22 81 -34 81 -4 0 -24 -11
-44 -25z"/>
<path d="M8486 11429 c-21 -12 -57 -40 -80 -63 -22 -24 -51 -48 -63 -54 -59
-32 -123 3 -143 77 -6 22 -15 41 -20 41 -21 0 -88 -37 -128 -71 -39 -34 -103
-59 -151 -59 -15 0 -21 -7 -21 -22 0 -13 -9 -42 -19 -64 -15 -32 -28 -45 -55
-54 -45 -15 -56 -35 -56 -102 0 -64 39 -135 68 -122 62 25 88 14 138 -61 28
-44 35 -61 30 -83 -4 -15 -11 -45 -15 -67 -9 -51 -24 -78 -57 -104 l-26 -20
23 -38 c12 -21 37 -55 56 -75 44 -51 49 -77 24 -126 -25 -49 -26 -62 -5 -62 8
0 29 -14 46 -30 25 -26 29 -35 23 -63 -11 -47 -29 -79 -70 -119 -35 -33 -37
-39 -38 -104 -1 -42 4 -82 13 -101 13 -30 12 -36 -8 -78 -12 -25 -22 -48 -22
-51 0 -2 29 -2 64 2 60 6 65 5 79 -17 8 -13 23 -51 33 -84 10 -33 28 -70 41
-83 32 -31 30 -84 -4 -147 -26 -47 -27 -56 -24 -170 2 -108 5 -123 27 -156 32
-47 33 -107 0 -146 -13 -15 -34 -49 -46 -76 -25 -54 -66 -91 -122 -114 -21 -8
-43 -24 -49 -34 -11 -22 -4 -74 18 -136 10 -27 13 -55 9 -80 -12 -69 -8 -92
28 -139 34 -45 34 -46 31 -132 -4 -86 -4 -87 -39 -117 -30 -25 -36 -36 -36
-71 0 -36 3 -42 35 -57 22 -10 41 -30 52 -54 13 -27 27 -39 51 -45 24 -7 37
-18 47 -42 14 -33 39 -46 126 -61 32 -6 39 -3 67 30 24 26 32 45 32 73 0 44
12 62 60 91 55 33 100 23 100 -20 0 -30 20 -32 45 -5 39 42 91 31 118 -24 8
-16 31 -31 65 -44 61 -22 70 -17 102 50 36 74 96 103 150 74 14 -7 33 -7 63 1
38 9 56 7 119 -10 91 -26 160 -27 179 -5 8 10 19 35 24 57 9 38 14 43 68 63
75 29 85 38 97 85 6 21 24 51 41 67 24 22 32 41 39 87 5 33 18 78 29 100 18
34 21 56 20 150 -2 146 12 174 113 224 37 19 39 30 17 101 -11 35 -17 71 -14
82 8 22 8 22 -67 2 -48 -12 -71 -13 -110 -5 -98 21 -146 59 -180 141 -18 43
-33 56 -117 100 -56 30 -70 43 -98 93 -18 33 -56 86 -84 120 -84 101 -96 132
-155 422 -46 227 -45 291 8 411 35 78 36 85 39 220 2 114 0 145 -13 170 -21
38 -55 171 -64 246 l-7 57 -47 11 c-97 23 -161 112 -180 250 -22 154 -117 225
-224 169z"/>
<path d="M9070 10494 c0 -111 -2 -119 -36 -197 -44 -103 -53 -189 -29 -297 9
-41 29 -136 44 -211 34 -163 52 -206 119 -284 28 -33 68 -87 87 -121 30 -51
45 -65 87 -85 72 -33 107 -65 129 -116 26 -61 58 -89 122 -108 50 -14 61 -15
115 0 85 22 146 19 194 -7 49 -28 68 -62 68 -124 l0 -47 38 6 c44 5 66 -4 100
-44 27 -32 80 -46 111 -30 11 7 30 29 41 50 12 25 35 48 62 63 24 13 50 37 58
53 8 17 25 47 38 67 22 36 22 38 6 69 -12 24 -15 46 -11 82 10 79 35 118 100
152 50 26 57 34 57 60 0 33 28 100 60 145 30 43 26 60 -14 60 -29 0 -38 6 -57
38 -13 20 -42 54 -66 75 -49 44 -54 68 -18 99 32 28 32 43 -2 65 -16 9 -49 39
-74 65 -25 26 -52 48 -61 48 -9 0 -28 -15 -42 -32 -54 -70 -50 -68 -139 -68
-71 0 -87 -3 -102 -20 -10 -11 -25 -20 -33 -20 -8 0 -30 -14 -50 -31 -28 -25
-40 -29 -61 -24 -14 4 -47 7 -73 6 -37 0 -56 6 -94 32 -26 17 -57 44 -68 60
-19 26 -19 29 -3 75 26 73 23 89 -33 143 -27 27 -50 57 -50 67 0 32 -18 39
-89 34 -82 -5 -238 14 -268 34 -25 16 -31 61 -12 96 17 31 3 62 -36 81 -27 13
-41 29 -56 65 -31 73 -42 92 -51 92 -4 0 -8 -52 -8 -116z"/>
<path d="M2420 10405 c0 -4 9 -18 20 -32 15 -19 20 -41 20 -87 -1 -94 -50
-185 -130 -241 -49 -34 -86 -42 -256 -55 -151 -12 -251 -31 -289 -56 -14 -9
-53 -49 -87 -88 -34 -39 -118 -124 -189 -188 -170 -157 -351 -362 -450 -510
-45 -66 -105 -143 -135 -170 -29 -28 -68 -73 -85 -100 -28 -44 -31 -54 -25
-101 18 -156 18 -174 1 -287 -21 -137 -17 -172 30 -237 79 -111 88 -130 96
-227 9 -106 0 -147 -41 -176 -28 -20 -28 -20 -13 -60 29 -73 61 -100 127 -109
55 -8 63 -12 110 -64 69 -76 116 -102 247 -137 128 -35 129 -35 129 48 0 38 6
62 21 83 19 28 19 30 3 76 -15 44 -15 51 -1 85 10 23 32 47 59 64 57 37 68 51
68 91 0 36 32 73 64 73 11 0 35 6 54 12 30 11 38 10 72 -10 43 -24 84 -28 127
-11 45 18 183 19 210 2 29 -19 68 -7 148 48 61 41 90 46 149 23 24 -9 21 43
-3 56 -11 5 -23 20 -27 32 -3 12 -13 28 -20 36 -30 29 -5 102 34 102 7 0 19
17 28 38 15 35 14 50 -2 130 -5 27 -2 38 18 60 14 15 30 46 37 70 9 33 20 46
46 59 34 16 36 16 58 -5 13 -12 36 -22 52 -22 20 0 41 -11 65 -35 44 -43 65
-39 86 15 18 44 50 68 185 135 158 80 173 93 208 185 52 137 99 180 196 180
49 0 108 25 139 59 42 46 3 163 -87 260 -63 69 -77 109 -77 223 0 71 -3 90
-21 112 -11 14 -28 26 -37 26 -8 0 -35 9 -58 20 -31 16 -48 32 -63 65 -19 40
-25 45 -54 45 -17 -1 -50 -9 -72 -20 -119 -58 -233 28 -265 202 -9 44 -18 61
-58 99 -26 25 -57 57 -69 72 -19 23 -29 27 -77 27 -54 0 -57 2 -111 55 -30 30
-59 55 -64 55 -5 0 -16 3 -25 6 -9 3 -16 3 -16 -1z"/>
<path d="M5369 10024 c-40 -33 -47 -35 -94 -31 -44 5 -58 1 -120 -31 -70 -37
-87 -55 -158 -167 -25 -39 -45 -56 -89 -78 -45 -21 -63 -37 -78 -67 -22 -42
-53 -63 -110 -74 -20 -3 -57 -24 -83 -45 -26 -22 -57 -43 -68 -46 -14 -5 -18
-12 -13 -23 20 -47 16 -74 -13 -105 -32 -36 -63 -97 -63 -128 0 -11 -9 -37
-20 -59 -23 -46 -25 -97 -5 -124 8 -11 15 -35 15 -53 0 -19 7 -50 16 -71 11
-27 14 -53 9 -97 -5 -48 -2 -69 15 -107 22 -50 19 -67 -17 -111 -13 -16 -23
-36 -23 -46 0 -10 -16 -36 -36 -59 -19 -23 -36 -50 -37 -60 0 -11 11 -47 26
-80 16 -34 34 -92 42 -129 28 -132 15 -210 -43 -253 l-30 -22 3 -172 c2 -98
-1 -193 -7 -223 -10 -49 -9 -57 14 -100 14 -27 29 -69 32 -96 7 -44 5 -49 -25
-76 -31 -29 -32 -30 -20 -77 7 -26 9 -59 6 -75 -5 -23 0 -35 33 -71 51 -56 72
-97 79 -159 6 -50 7 -51 35 -45 40 8 76 -9 96 -45 9 -17 25 -41 34 -53 16 -20
18 -20 50 -4 18 9 41 19 50 22 13 4 16 13 11 41 -7 45 15 72 66 80 20 4 51 13
69 21 49 21 68 18 112 -23 l41 -36 70 13 c56 11 83 11 128 2 92 -19 119 -16
151 18 24 26 35 30 82 30 l54 0 27 64 c24 53 27 71 21 114 -6 46 -4 54 20 83
22 25 26 38 20 58 -5 14 -9 71 -11 126 -1 55 -5 118 -9 140 -8 53 21 91 81
106 40 10 43 13 49 52 11 65 28 84 91 98 47 10 62 10 105 -4 56 -18 69 -15
120 24 19 15 47 29 62 33 25 6 27 8 16 34 -14 34 -30 163 -32 260 -1 69 -2 73
-31 90 -22 14 -34 33 -47 76 -24 75 -23 81 11 108 26 20 30 30 32 83 1 33 -3
86 -11 117 -11 48 -11 60 1 74 11 14 9 19 -19 43 -24 19 -32 34 -32 58 0 26
-3 30 -19 26 -28 -7 -68 37 -82 90 -6 26 -23 57 -40 73 -32 31 -39 86 -17 127
7 12 11 35 9 50 -4 40 14 56 70 63 66 9 76 24 44 62 -28 34 -31 56 -10 92 20
34 18 50 -4 50 -25 0 -38 18 -50 69 -12 54 -16 58 -39 38 -10 -10 -26 -17 -35
-17 -28 0 -95 68 -112 114 -14 35 -25 47 -56 59 -29 11 -43 25 -54 52 -9 19
-24 44 -35 55 -26 26 -25 37 5 85 30 49 31 64 5 90 -11 11 -31 35 -43 54 -17
26 -34 37 -72 47 -69 18 -68 18 -116 -22z"/>
<path d="M12485 9940 c-9 -10 -29 -20 -43 -22 -21 -2 -28 -10 -33 -37 -9 -44
-46 -80 -91 -88 -49 -7 -81 2 -115 33 -22 20 -34 24 -58 20 -66 -13 -125 -18
-149 -12 -13 3 -48 26 -77 51 -29 25 -57 45 -62 45 -5 0 -23 -11 -39 -25 -21
-18 -41 -25 -67 -25 -76 2 -124 -12 -157 -47 -17 -18 -39 -33 -47 -33 -23 0
-98 -77 -122 -124 -32 -64 -64 -81 -153 -82 -42 -1 -96 -7 -119 -15 -60 -19
-111 -4 -141 41 -14 22 -35 38 -55 43 -18 5 -40 15 -49 24 -27 24 -52 12 -66
-32 -17 -54 -31 -65 -93 -79 -48 -11 -56 -17 -83 -60 -17 -29 -31 -67 -34 -95
-4 -42 -2 -47 25 -62 15 -9 51 -19 80 -22 59 -7 87 -21 102 -54 12 -26 6 -49
-15 -57 -30 -11 -15 -50 34 -86 48 -36 105 -119 122 -178 10 -39 0 -75 -32
-109 -20 -21 -20 -24 -5 -47 9 -14 37 -34 61 -45 24 -10 50 -30 57 -43 6 -12
25 -34 41 -48 16 -14 39 -50 51 -80 18 -44 32 -62 77 -93 89 -62 96 -78 92
-237 l-3 -135 42 -40 c43 -40 78 -104 79 -141 0 -24 47 -100 82 -131 13 -13
52 -36 85 -52 35 -17 72 -45 87 -64 19 -25 45 -41 98 -61 152 -56 182 -88 158
-168 -9 -33 -9 -46 1 -65 14 -26 47 -38 77 -29 11 4 42 -2 70 -13 l49 -20 54
29 c44 24 67 29 122 30 76 0 99 -9 194 -76 34 -24 70 -44 79 -44 10 0 33 -14
50 -31 24 -23 47 -34 82 -40 34 -5 73 -23 119 -53 79 -53 135 -63 159 -31 22
29 18 151 -6 204 -27 59 -25 76 15 164 56 121 134 179 201 149 21 -10 25 -8
39 18 19 37 80 76 136 89 27 6 52 22 74 45 39 43 85 49 121 15 18 -17 26 -19
43 -10 17 10 21 21 21 68 0 140 60 205 148 159 39 -20 155 -10 178 15 18 20
54 140 54 179 0 14 -7 34 -15 44 -8 11 -15 32 -15 46 0 41 28 60 89 60 l52 0
-20 26 c-27 34 -26 57 0 94 19 25 20 32 9 59 -19 47 -35 56 -71 41 -38 -16
-94 -1 -138 36 -32 27 -61 102 -61 158 0 44 -11 56 -56 62 -61 9 -88 22 -106
54 -16 28 -20 29 -62 24 -42 -6 -46 -4 -95 41 -83 78 -89 145 -23 249 19 30
26 53 25 84 -1 24 -4 46 -7 49 -2 3 -39 6 -82 6 -56 2 -79 -2 -82 -11 -13 -39
-49 -65 -100 -70 -99 -9 -135 26 -115 114 8 35 7 46 -4 56 -8 6 -22 28 -31 47
-11 22 -27 37 -44 42 -47 12 -85 47 -107 98 -15 35 -35 60 -70 85 -50 37 -73
74 -86 136 -8 42 -31 80 -48 80 -6 0 -24 -21 -39 -45 -21 -35 -33 -45 -53 -45
-39 0 -62 16 -68 47 -4 20 -16 32 -39 42 -18 8 -40 18 -50 22 -10 5 -22 1 -33
-11z"/>
<path d="M16005 9910 c-33 -16 -98 -42 -145 -56 -106 -33 -132 -46 -280 -143
-65 -44 -142 -87 -170 -96 -68 -23 -137 -16 -189 18 l-39 26 -23 -26 c-53 -56
-134 -72 -197 -39 -34 17 -72 77 -92 141 -7 22 -17 46 -23 53 -24 30 -194 101
-243 102 -45 0 -101 -33 -157 -95 -32 -35 -65 -66 -75 -69 -11 -4 -23 -24 -30
-51 -16 -60 -55 -85 -135 -85 -45 0 -69 6 -104 27 -38 22 -50 25 -81 17 -27
-6 -41 -17 -51 -39 -22 -49 -72 -95 -102 -95 -43 0 -81 -18 -115 -56 -26 -28
-39 -34 -71 -34 -60 0 -87 -34 -89 -110 -1 -46 -7 -68 -31 -107 -54 -85 -51
-129 11 -189 30 -29 37 -31 78 -27 47 5 66 -5 93 -51 6 -10 31 -20 65 -25 62
-10 100 -44 100 -90 0 -15 4 -41 9 -57 5 -16 12 -41 15 -55 8 -35 86 -75 116
-59 10 5 32 10 48 10 36 0 76 -43 91 -97 9 -31 7 -42 -10 -70 l-21 -33 21 -42
c14 -30 17 -46 10 -59 -11 -21 -67 -34 -103 -25 -33 8 -41 -8 -20 -39 30 -46
-1 -215 -50 -272 -19 -22 -35 -28 -97 -36 -97 -11 -105 -11 -147 9 -33 16 -36
16 -48 -1 -19 -25 -28 -102 -18 -144 12 -48 44 -59 119 -41 53 13 57 12 83 -8
15 -12 50 -33 78 -46 41 -19 58 -35 87 -83 33 -53 83 -100 145 -132 17 -9 37
-9 83 -1 58 11 63 10 125 -19 35 -17 80 -33 98 -36 39 -8 88 14 111 49 28 42
109 61 156 35 38 -20 79 -98 79 -152 0 -64 13 -85 66 -107 35 -15 48 -28 60
-57 27 -68 35 -79 75 -104 46 -27 69 -64 69 -107 0 -17 9 -49 20 -73 11 -24
20 -56 20 -71 0 -23 5 -28 24 -28 33 0 53 22 66 73 19 74 33 99 64 118 48 29
99 25 141 -13 33 -28 40 -30 73 -22 25 7 36 14 33 24 -3 8 -6 39 -7 68 -1 38
-8 60 -23 76 -27 29 -27 77 0 102 17 15 35 19 83 17 39 -1 66 3 76 12 38 34
125 30 162 -8 19 -20 20 -21 13 -2 -25 63 30 116 123 119 43 1 46 3 58 40 18
50 32 66 71 82 30 13 31 16 22 44 -9 24 -7 38 10 73 12 24 32 50 46 57 13 7
29 26 34 42 7 20 23 34 54 47 31 13 48 28 57 50 7 17 19 35 27 39 15 9 7 37
-19 74 -27 38 35 100 113 113 22 4 62 0 99 -9 110 -28 160 -16 160 39 0 15 12
34 34 52 36 28 38 43 6 43 -38 0 -60 47 -60 125 0 63 -3 74 -25 95 -36 34 -42
80 -16 133 12 24 21 54 21 66 0 13 14 36 30 51 17 15 30 34 30 40 0 7 17 28
37 47 41 39 39 55 -13 83 -60 34 -64 101 -7 131 22 12 24 18 18 55 -5 35 -2
46 20 72 14 16 25 32 25 35 0 2 -22 7 -50 9 -37 4 -70 18 -127 53 -210 128
-245 179 -277 393 -15 104 -21 114 -106 168 -44 28 -67 52 -97 103 -37 62 -42
66 -79 69 -28 2 -57 -6 -99 -28z"/>
<path d="M4287 9619 c-10 -6 -34 -8 -52 -5 -30 6 -37 2 -75 -38 -58 -62 -100
-75 -248 -80 -95 -3 -127 -7 -141 -20 -9 -9 -32 -16 -49 -16 -57 0 -82 -16
-82 -51 0 -18 -7 -40 -16 -50 -15 -16 -15 -22 2 -65 10 -25 18 -68 18 -94 1
-41 -4 -54 -28 -79 -46 -48 -121 -81 -184 -81 -50 0 -57 -3 -88 -37 -18 -20
-41 -59 -50 -87 -9 -28 -23 -66 -32 -84 -17 -37 -95 -94 -186 -135 -107 -49
-173 -95 -185 -129 -18 -51 -13 -75 30 -143 37 -59 41 -70 40 -131 0 -36 -3
-75 -7 -86 -4 -12 4 -33 21 -59 25 -35 27 -45 23 -107 -6 -86 2 -106 50 -131
81 -42 151 -148 152 -231 1 -96 85 -210 155 -210 19 0 60 7 92 15 81 21 120 5
148 -61 8 -20 34 -45 68 -67 62 -40 97 -99 105 -179 7 -71 42 -98 127 -98 58
0 65 -2 88 -30 14 -16 28 -39 32 -49 5 -18 13 -19 74 -14 64 5 73 3 162 -36
52 -24 116 -53 143 -67 69 -33 76 -32 69 14 -8 49 -28 88 -74 141 -22 24 -40
51 -41 60 -1 9 -2 36 -3 61 -1 25 -6 64 -10 87 -7 39 -5 45 24 72 27 25 30 34
24 62 -3 19 -17 56 -31 82 -23 45 -24 51 -12 105 7 31 12 64 11 72 -1 8 -3 87
-5 175 l-4 159 34 34 c45 45 54 63 54 107 0 58 -29 186 -55 240 -13 28 -26 58
-29 68 -7 23 18 84 48 117 13 14 29 41 35 61 7 20 20 44 30 54 19 16 19 18 -5
70 -22 48 -23 57 -12 98 10 38 9 52 -5 89 -9 24 -17 57 -17 73 0 17 -7 39 -15
49 -21 28 -18 103 5 155 11 24 20 49 20 56 0 24 42 110 67 137 23 25 24 28 12
65 -7 21 -20 46 -28 56 -8 10 -17 37 -21 60 -5 42 -6 42 -44 39 -22 -2 -48 3
-62 12 -27 19 -42 19 -67 5z"/>
<path d="M17109 9449 c-67 -10 -89 -25 -89 -58 0 -64 -31 -133 -81 -182 -37
-36 -49 -55 -49 -78 0 -19 -8 -36 -23 -48 -19 -15 -22 -23 -16 -46 10 -37 -3
-69 -35 -90 -31 -21 -34 -43 -6 -52 29 -9 70 -63 70 -92 0 -16 -13 -36 -35
-56 -19 -17 -35 -36 -35 -43 0 -7 -14 -25 -30 -41 -23 -21 -29 -34 -25 -51 4
-16 -2 -33 -20 -53 -32 -39 -32 -60 3 -100 23 -28 28 -44 32 -113 l5 -79 33
-11 c63 -21 70 -71 17 -112 -40 -31 -42 -40 -15 -69 11 -12 22 -36 24 -53 7
-63 50 -79 120 -45 29 13 40 14 61 5 32 -15 41 -38 49 -139 l6 -82 -36 -41
c-20 -22 -34 -46 -31 -53 6 -16 59 -27 128 -27 51 0 73 -16 84 -63 4 -16 22
-38 41 -50 36 -24 57 -59 48 -82 -3 -8 4 -34 15 -58 25 -52 18 -83 -31 -134
l-31 -32 31 -35 c20 -23 33 -51 37 -81 4 -25 16 -62 26 -82 11 -21 19 -49 19
-64 0 -15 4 -39 10 -53 8 -21 16 -26 44 -26 48 0 65 -8 82 -41 8 -17 23 -29
34 -29 18 0 60 -43 60 -62 0 -6 -11 -23 -25 -40 -40 -47 -34 -65 30 -83 62
-19 101 -57 111 -111 8 -46 45 -69 134 -84 93 -16 124 -37 145 -99 20 -61 50
-81 122 -81 26 -1 60 -6 75 -13 27 -12 72 -66 84 -99 3 -10 29 -32 57 -50 l50
-32 225 -3 c252 -4 307 5 354 54 24 25 28 39 34 113 9 127 20 156 94 260 79
109 90 134 90 195 l0 44 -33 -6 c-47 -7 -113 13 -136 44 -29 36 -26 73 9 143
17 33 30 65 30 71 0 7 -15 35 -34 64 -19 28 -38 63 -41 78 -10 40 -36 56 -107
66 -77 11 -110 30 -132 76 -39 81 -4 200 89 303 58 64 90 82 147 82 50 0 82
19 103 60 8 16 15 31 15 34 0 2 -57 4 -127 3 -120 -2 -131 0 -173 23 -85 48
-129 175 -80 237 41 53 96 81 170 89 38 3 82 14 98 24 26 16 30 25 35 84 7 75
21 106 77 171 91 106 90 147 -7 232 -35 31 -71 69 -79 84 -20 40 -17 102 7
153 43 87 1 98 -102 26 -139 -96 -268 -105 -344 -22 -19 20 -61 66 -94 102
l-59 65 -89 6 c-102 7 -135 21 -212 91 -74 68 -91 73 -172 53 -53 -13 -76 -25
-107 -55 -83 -82 -154 -60 -247 74 -20 30 -56 68 -80 85 -37 27 -52 31 -107
31 -110 1 -162 30 -204 112 -13 26 -27 48 -31 51 -5 2 -29 0 -54 -4z"/>
<path d="M10543 9329 c-26 -11 -51 -31 -63 -51 -24 -40 -28 -123 -5 -132 24
-9 18 -55 -14 -105 -16 -25 -32 -56 -36 -69 -4 -13 -31 -39 -61 -58 -29 -19
-59 -44 -65 -57 -20 -38 -61 -76 -90 -82 -43 -10 -102 11 -139 50 -31 32 -39
35 -72 30 -53 -9 -78 18 -78 84 0 51 -11 70 -52 92 -34 18 -44 -3 -28 -59 34
-118 26 -141 -61 -189 -26 -14 -51 -33 -55 -42 -4 -9 -8 -68 -8 -131 -1 -99
-4 -122 -24 -161 -12 -26 -27 -72 -32 -104 -7 -43 -18 -66 -45 -96 -19 -21
-35 -47 -35 -57 0 -33 -58 -90 -109 -107 -45 -14 -49 -19 -55 -53 -7 -45 -39
-79 -87 -92 -36 -11 -73 -7 -158 17 -37 11 -74 13 -115 9 -36 -4 -72 -2 -92 6
-42 15 -56 4 -94 -73 -40 -78 -66 -85 -166 -48 -39 15 -61 30 -73 50 -20 35
-27 36 -57 4 -30 -32 -67 -32 -93 1 -11 14 -22 30 -24 37 -3 8 -13 5 -33 -9
-22 -16 -30 -30 -31 -58 -3 -44 -33 -97 -70 -121 -21 -14 -39 -16 -85 -11 -32
3 -68 10 -78 16 -23 12 -24 9 -10 -42 14 -49 -6 -98 -52 -126 -49 -31 -61 -61
-36 -92 17 -21 19 -34 14 -76 -5 -47 -3 -54 24 -83 17 -17 30 -36 30 -42 0 -6
9 -22 20 -36 14 -18 20 -41 20 -74 0 -62 7 -79 34 -79 34 0 54 -20 75 -75 15
-40 28 -55 62 -76 52 -30 71 -62 65 -107 -4 -25 1 -38 21 -58 23 -23 25 -31
21 -88 l-5 -62 44 -24 44 -23 29 28 c26 25 34 27 74 22 39 -6 47 -4 56 13 7
13 26 22 52 26 32 6 45 14 60 41 29 48 50 57 93 39 25 -11 43 -13 60 -6 23 9
25 15 25 66 0 41 5 63 20 81 11 14 20 38 20 52 0 29 8 42 52 80 23 21 43 26
125 32 93 7 101 6 151 -17 49 -24 56 -25 103 -13 l50 13 35 -37 c20 -20 39
-37 45 -37 5 0 26 16 46 35 54 51 75 53 145 16 33 -17 69 -31 81 -31 31 0 64
25 71 54 3 14 25 37 49 53 32 22 45 39 56 73 29 96 26 92 131 130 19 7 81 13
137 13 100 1 103 0 132 -27 30 -29 31 -29 88 -17 42 9 66 10 86 2 43 -17 47
-14 47 30 0 51 13 75 50 94 17 9 30 23 30 31 0 53 61 114 114 114 42 0 95 -27
108 -54 10 -23 18 -26 58 -26 52 0 76 -18 89 -66 6 -23 13 -28 32 -26 13 2 43
6 66 9 23 3 47 11 54 19 15 18 35 18 69 -2 26 -16 29 -16 54 2 20 15 25 25 21
44 -18 83 -17 99 7 152 14 29 44 75 68 101 l42 48 -50 52 c-59 63 -79 99 -88
158 -5 35 -16 53 -56 91 -27 26 -53 62 -59 80 -5 19 -7 82 -3 150 l7 117 -30
28 c-17 15 -51 45 -77 66 -33 27 -50 52 -63 89 -12 32 -26 54 -41 61 -13 6
-30 24 -38 40 -9 17 -32 36 -59 47 -78 34 -108 114 -60 160 14 13 25 34 25 47
0 44 -48 119 -109 173 -72 61 -81 86 -52 135 23 40 23 40 -54 49 -27 4 -65 17
-85 30 -35 23 -35 23 -77 5z"/>
<path d="M7245 8860 c-11 -21 -27 -33 -58 -41 -23 -7 -50 -19 -60 -28 -11 -9
-39 -16 -70 -16 -29 -1 -62 -7 -74 -13 -32 -17 -57 -15 -87 9 -22 17 -35 20
-70 15 -24 -4 -52 -16 -61 -26 -23 -26 -59 -25 -102 2 -34 20 -36 20 -64 4
-30 -18 -125 -24 -240 -16 -47 3 -64 -1 -100 -22 -24 -14 -63 -31 -86 -37 -49
-13 -62 -39 -44 -93 6 -18 9 -69 6 -113 -4 -72 -7 -82 -31 -103 -23 -20 -25
-26 -15 -48 6 -14 11 -33 11 -43 0 -11 15 -28 34 -39 41 -24 54 -71 36 -126
-9 -29 -8 -40 6 -67 11 -23 15 -46 11 -78 -4 -30 -1 -55 8 -71 18 -31 19 -94
2 -108 -6 -6 -26 -14 -42 -18 -17 -4 -46 -20 -65 -35 -47 -38 -89 -45 -140
-25 -31 12 -50 14 -82 7 -43 -10 -58 -24 -58 -54 0 -10 -6 -33 -14 -52 -13
-29 -21 -36 -56 -41 -52 -9 -78 -41 -59 -76 8 -14 13 -77 15 -171 2 -136 1
-150 -17 -168 -16 -16 -19 -28 -14 -63 5 -33 1 -56 -20 -105 -14 -35 -25 -64
-23 -66 2 -1 18 -10 35 -19 40 -20 63 -63 70 -130 l5 -51 80 4 c78 3 80 3 176
-47 53 -27 126 -62 162 -77 36 -15 73 -34 84 -43 28 -26 104 -144 112 -175 9
-38 38 -54 111 -60 102 -8 149 -43 184 -136 13 -35 60 -71 93 -71 10 0 44 12
74 27 47 23 68 27 138 26 95 0 144 -22 208 -93 42 -47 65 -47 83 -1 15 40 57
67 85 54 18 -8 26 -5 43 15 27 31 59 25 109 -18 23 -21 44 -30 68 -30 39 0 68
-25 68 -57 0 -36 72 -45 137 -18 31 13 45 14 85 3 38 -9 56 -9 82 0 23 9 42 9
59 3 32 -12 37 -7 37 45 0 49 34 98 75 108 15 4 26 15 29 29 15 82 25 126 35
152 6 17 13 47 16 68 9 56 76 120 148 141 52 15 56 18 71 63 24 69 21 105 -10
132 -23 20 -25 28 -20 64 7 49 2 59 -39 80 -43 22 -72 56 -82 97 -7 28 -16 37
-43 46 -50 17 -70 47 -70 108 0 35 -6 59 -20 76 -11 14 -20 29 -20 34 0 4 -14
24 -31 44 -29 32 -30 39 -24 87 6 49 4 54 -21 73 l-28 20 18 40 c10 23 41 62
68 86 31 28 48 51 45 60 -3 8 -8 31 -11 50 -3 20 -8 51 -11 70 -5 28 -11 36
-34 41 -33 7 -67 41 -73 70 -2 11 -20 29 -41 40 -67 36 -73 129 -10 188 27 26
32 37 27 59 -3 16 0 44 6 63 11 34 10 39 -23 81 -19 24 -38 61 -42 82 -4 20
-11 43 -17 50 -17 20 -56 15 -63 -9 -6 -19 -25 -30 -105 -59 -52 -20 -234 -13
-287 10 -41 18 -63 44 -63 75 0 9 -9 28 -20 42 -11 14 -20 38 -20 53 0 15 9
35 20 45 25 22 25 36 1 66 -10 13 -21 42 -25 64 -7 37 -41 115 -51 115 -2 0
-11 -13 -20 -30z"/>
<path d="M2597 8593 c-2 -5 -7 -24 -11 -44 -3 -20 -17 -45 -30 -56 -24 -21
-24 -22 -8 -65 15 -43 15 -47 -8 -107 -17 -46 -30 -66 -52 -77 -25 -13 -27
-18 -17 -31 7 -8 18 -23 24 -33 5 -9 19 -30 30 -45 22 -32 25 -86 5 -110 -12
-14 -25 -16 -75 -10 -51 5 -65 3 -85 -13 -42 -33 -128 -72 -157 -72 -16 0 -39
7 -51 16 -15 10 -30 13 -45 8 -12 -5 -44 -9 -72 -11 -27 -1 -79 -5 -114 -9
-50 -5 -70 -2 -96 11 -26 14 -41 16 -81 9 -48 -9 -49 -10 -51 -48 -3 -45 -11
-57 -81 -109 -52 -38 -54 -41 -48 -76 18 -103 18 -112 0 -132 -11 -13 -18 -38
-20 -78 -1 -32 -7 -68 -14 -80 -10 -19 -5 -27 42 -71 29 -27 73 -57 98 -66 60
-23 68 -30 95 -85 17 -32 32 -49 50 -53 31 -8 55 -57 55 -111 0 -22 8 -43 20
-55 23 -23 32 -20 94 29 46 37 76 39 111 9 22 -19 28 -38 39 -112 16 -107 36
-132 96 -120 60 12 71 7 137 -58 68 -67 93 -104 93 -138 0 -12 10 -36 22 -53
17 -23 23 -51 28 -117 6 -79 9 -90 42 -134 52 -67 56 -95 23 -154 -42 -72 -40
-115 5 -182 21 -30 57 -88 80 -128 22 -40 51 -78 63 -86 27 -17 108 -29 123
-18 16 10 44 100 44 140 0 20 -14 59 -36 99 -32 56 -36 70 -30 109 13 96 77
179 176 229 73 37 76 41 86 116 8 57 23 72 92 88 47 10 78 34 114 88 13 18 44
47 70 64 46 30 69 35 230 54 30 4 49 12 54 23 5 9 9 87 9 173 0 153 0 156 28
197 15 23 27 54 27 69 -1 53 -35 109 -94 152 -32 24 -64 58 -76 81 -24 46 -33
48 -133 24 -63 -16 -70 -16 -112 0 -81 31 -143 126 -155 239 -9 80 -48 151
-99 182 -18 11 -50 34 -70 52 l-36 32 2 81 c2 72 -1 86 -22 117 -22 33 -23 42
-18 124 l6 88 -42 69 c-22 37 -41 73 -41 79 0 5 -11 8 -24 6 -17 -4 -35 5 -63
30 -28 26 -45 34 -63 30 -18 -3 -32 2 -44 16 -20 22 -32 26 -39 14z"/>
<path d="M16467 8030 c-51 -16 -57 -26 -36 -67 25 -48 24 -69 -3 -103 -13 -16
-31 -41 -42 -55 -10 -15 -34 -33 -53 -41 -18 -8 -38 -25 -42 -37 -5 -13 -26
-36 -46 -51 -36 -28 -37 -30 -31 -79 8 -56 -6 -79 -59 -101 -24 -10 -33 -23
-42 -59 -14 -52 -58 -86 -91 -68 -11 5 -30 5 -52 -3 -34 -11 -35 -13 -32 -54
2 -24 -2 -50 -8 -58 -18 -20 -64 -17 -85 6 -25 28 -95 28 -120 0 -16 -18 -26
-19 -82 -14 -72 8 -78 0 -37 -49 21 -25 24 -37 19 -65 -6 -33 11 -126 27 -148
4 -6 34 -16 65 -23 32 -7 68 -17 80 -22 35 -13 39 -53 13 -109 -13 -27 -20
-55 -17 -64 3 -8 -5 -47 -18 -85 -28 -79 -23 -121 16 -121 51 0 121 -91 135
-177 6 -37 3 -45 -21 -69 -25 -25 -26 -30 -16 -64 21 -70 15 -104 -28 -152
-37 -40 -43 -43 -90 -43 -41 0 -55 5 -80 29 -20 19 -43 30 -74 33 -38 5 -47 2
-61 -18 -30 -43 -21 -78 34 -128 71 -65 68 -121 -7 -121 -22 0 -36 -6 -43 -19
-14 -28 -13 -31 13 -31 25 0 57 -28 57 -49 0 -6 -7 -26 -16 -43 -16 -30 -16
-31 8 -25 39 10 65 -3 102 -51 29 -36 36 -54 36 -89 0 -41 2 -43 28 -43 17 0
37 -9 48 -21 17 -19 18 -23 2 -66 -16 -44 -16 -45 4 -39 28 7 84 -17 97 -43
10 -17 15 -18 41 -10 41 15 108 -12 169 -67 47 -43 48 -43 86 -30 98 34 154
-36 107 -132 -13 -25 -17 -51 -14 -79 5 -52 -18 -69 -73 -54 -34 9 -36 8 -49
-24 -17 -40 -42 -55 -90 -55 -41 0 -40 2 -22 -36 28 -56 29 -81 7 -103 -12
-12 -35 -21 -53 -22 l-33 -1 40 -14 c49 -18 108 -96 99 -132 -8 -29 17 -38 56
-22 42 18 78 6 85 -28 3 -15 12 -40 20 -55 24 -45 19 -76 -12 -88 -62 -24 -77
-35 -84 -63 -7 -26 -6 -27 14 -21 12 3 51 9 87 12 55 4 74 2 110 -16 l45 -22
22 28 c13 15 41 73 63 129 23 55 54 116 70 136 65 79 173 125 364 154 130 19
190 14 276 -27 34 -16 70 -29 81 -29 23 0 41 28 64 97 9 29 26 59 37 67 27 19
78 96 78 118 0 11 -23 29 -62 50 -85 46 -103 73 -102 156 0 49 9 93 33 162 55
157 88 205 188 277 74 52 147 80 262 99 47 7 88 19 92 26 4 7 11 42 14 78 17
186 40 253 103 295 46 30 115 55 154 55 l29 0 -23 30 c-19 26 -28 30 -70 30
-51 0 -110 20 -140 47 -9 8 -24 37 -33 64 -16 47 -19 50 -68 63 -29 8 -68 17
-88 20 -20 4 -52 17 -70 29 -33 22 -41 35 -72 108 -14 32 -22 38 -68 49 -28 7
-60 21 -70 31 -25 25 -24 80 2 113 12 15 20 28 18 30 -2 2 -18 11 -36 20 -17
9 -34 25 -38 36 -5 15 -15 20 -41 20 -20 0 -44 5 -55 10 -26 15 -49 62 -49
105 0 20 -9 53 -20 73 -10 20 -22 54 -25 75 -4 23 -18 51 -36 69 -38 40 -37
67 6 118 40 48 42 64 15 105 -13 19 -18 39 -15 55 5 20 -1 30 -25 48 -16 12
-39 40 -49 61 -20 38 -21 38 -88 43 -80 6 -130 28 -139 63 -7 27 15 70 48 93
16 12 18 23 13 90 -9 106 -9 106 -44 87 -57 -29 -146 -11 -171 34 -5 11 -10
33 -10 50 0 35 -4 36 -40 16 -33 -19 -95 -19 -167 0 -64 17 -66 17 -106 5z"/>
<path d="M450 7959 c-53 -10 -84 -31 -126 -86 -26 -34 -33 -55 -43 -131 -18
-140 -44 -198 -137 -304 -47 -52 -106 -164 -118 -224 -6 -28 -3 -35 24 -54 18
-13 57 -57 88 -99 31 -42 86 -108 123 -147 59 -62 68 -78 79 -130 19 -90 75
-190 121 -215 11 -5 59 -14 107 -19 79 -8 90 -12 115 -40 22 -25 27 -39 27
-85 0 -41 4 -57 15 -61 9 -4 51 4 94 16 l79 23 5 40 c11 81 71 125 130 95 18
-9 48 -21 68 -27 19 -6 50 -24 68 -39 27 -22 35 -38 42 -81 9 -61 43 -104 94
-121 24 -8 48 -6 109 10 98 26 120 22 216 -41 106 -68 130 -75 186 -54 27 10
59 15 79 12 47 -8 105 -50 140 -101 32 -47 71 -76 102 -76 10 0 47 10 83 21
45 14 96 21 165 22 l100 2 33 70 c18 38 32 75 32 82 0 6 -15 31 -33 55 -43 56
-57 97 -57 170 0 47 -5 67 -25 96 -14 20 -25 49 -25 65 0 21 -15 45 -60 91
l-60 63 -64 -1 c-54 -1 -68 3 -89 22 -27 26 -47 82 -47 135 0 48 -16 87 -35
87 -9 0 -38 -16 -66 -35 -56 -38 -83 -43 -117 -19 -31 21 -45 52 -52 108 -4
42 -10 52 -35 66 -16 9 -41 37 -55 63 -20 38 -34 50 -75 67 -29 12 -82 49
-125 88 -71 65 -80 70 -173 95 -137 38 -206 75 -263 142 -35 40 -55 55 -73 55
-80 0 -132 39 -176 130 -29 60 -29 60 -72 60 -60 0 -92 19 -154 90 -57 66 -68
69 -169 49z"/>
<path d="M13501 7767 c-15 -29 -61 -57 -93 -57 -31 0 -94 -43 -110 -77 -20
-41 -40 -49 -86 -34 -37 12 -42 12 -72 -10 -18 -14 -47 -54 -67 -93 -38 -75
-39 -95 -8 -176 23 -61 17 -169 -11 -207 -50 -68 -119 -64 -231 12 -50 34 -75
45 -104 45 -30 0 -47 8 -78 35 -52 48 -77 46 -85 -4 -7 -46 -49 -101 -78 -101
-11 0 -32 7 -47 16 -22 13 -40 14 -96 7 -66 -8 -70 -10 -73 -35 -4 -37 27 -55
111 -63 123 -13 164 -82 96 -160 -39 -45 -78 -65 -122 -65 -21 0 -51 -11 -78
-30 -24 -16 -56 -30 -70 -30 -46 0 -54 -21 -41 -110 8 -60 8 -93 0 -134 l-12
-55 42 -60 c23 -32 45 -73 48 -89 8 -40 -26 -103 -73 -139 -21 -15 -59 -49
-85 -75 -39 -40 -53 -48 -84 -48 -22 0 -46 7 -57 17 -18 17 -20 17 -38 -6 -10
-13 -19 -34 -19 -48 0 -40 -49 -81 -108 -89 -45 -6 -54 -11 -72 -41 -14 -24
-20 -52 -20 -93 0 -50 3 -60 20 -65 39 -12 50 -55 48 -182 0 -65 -5 -123 -10
-130 -5 -6 -27 -14 -49 -18 -21 -4 -39 -8 -39 -10 0 -1 7 -16 15 -31 20 -39
19 -56 -6 -88 -31 -40 -19 -60 33 -53 43 6 77 -5 91 -29 5 -9 26 -14 52 -14
62 0 93 -14 101 -47 4 -15 24 -45 45 -65 l38 -37 16 25 c9 14 36 34 60 44 28
12 50 30 60 50 28 55 51 70 103 70 26 0 52 -4 58 -8 21 -14 34 -51 34 -96 0
-60 18 -70 91 -50 30 8 108 17 174 20 99 5 136 2 213 -15 92 -20 93 -20 125
-1 18 11 40 20 49 20 11 0 20 10 24 28 17 79 47 96 125 69 63 -23 76 -22 123
11 35 24 48 27 127 27 77 0 91 -3 120 -24 23 -17 48 -25 88 -27 31 -2 72 -6
92 -9 61 -11 89 37 50 86 -18 23 -33 87 -34 141 0 15 12 46 27 68 33 50 33 60
-2 60 -42 0 -64 30 -61 80 3 41 2 43 -41 64 -60 28 -77 63 -55 110 13 26 27
38 58 49 23 7 42 19 42 25 0 6 -16 21 -35 34 l-35 24 0 123 c-1 112 1 124 19
137 29 20 83 17 105 -5 17 -17 27 -19 83 -11 35 5 79 5 98 1 28 -6 45 -3 83
17 64 33 197 34 264 1 24 -11 61 -23 83 -26 34 -5 44 -1 76 27 44 38 92 60
132 60 31 0 143 -52 162 -75 16 -19 43 -19 99 0 54 19 65 16 125 -40 47 -43
48 -46 42 -86 -7 -41 -5 -44 39 -84 57 -53 59 -82 10 -126 -44 -41 -39 -48 10
-14 21 14 51 25 67 25 28 0 70 -31 80 -61 5 -12 10 -11 38 4 17 9 45 17 62 17
17 0 53 -8 80 -17 49 -17 51 -17 62 1 6 11 18 27 27 36 9 9 19 32 23 50 9 46
43 80 79 80 l30 0 -46 43 c-50 46 -63 79 -52 134 7 41 62 103 92 103 38 0 92
-21 128 -50 48 -38 69 -38 106 3 26 27 29 37 24 67 -19 108 -19 117 9 135 32
21 33 43 5 98 -28 55 -48 77 -70 77 -10 0 -31 12 -48 26 -26 22 -31 33 -31 70
0 24 9 67 20 96 11 28 17 62 14 75 -4 14 2 36 15 58 12 20 21 42 21 49 0 7
-27 18 -67 26 -42 9 -76 23 -90 37 -19 19 -30 21 -76 16 -49 -5 -56 -3 -89 26
-69 60 -106 37 -138 -86 -14 -57 -58 -93 -114 -93 -51 0 -76 22 -76 67 0 17
-9 52 -20 78 -11 26 -20 62 -20 81 0 28 -6 38 -39 58 -46 29 -76 66 -91 110
-8 24 -22 38 -53 52 -57 26 -87 73 -87 138 0 38 -6 61 -25 89 -37 53 -72 51
-131 -8 -68 -66 -137 -72 -238 -20 -46 24 -56 25 -126 19 -84 -7 -93 -4 -169
53 -54 41 -74 64 -102 116 -14 26 -33 44 -62 57 -23 11 -54 27 -69 37 -24 15
-33 16 -73 5 -48 -13 -86 -8 -122 15 -19 13 -25 13 -45 -1 -32 -22 -75 -20
-90 4 -17 27 -52 25 -67 -3z"/>
<path d="M11517 7688 c-22 -24 -51 -67 -65 -97 -21 -47 -23 -58 -13 -91 18
-61 14 -86 -20 -114 -42 -35 -77 -43 -110 -24 -24 14 -29 14 -42 1 -8 -8 -32
-17 -53 -19 -22 -2 -57 -7 -79 -10 -50 -7 -74 10 -84 56 -7 34 -8 35 -55 35
-39 1 -52 5 -67 25 -10 14 -24 31 -29 38 -6 6 -28 12 -49 12 -45 0 -57 -11
-66 -63 -6 -30 -16 -44 -46 -63 -37 -23 -39 -27 -37 -70 1 -24 -4 -50 -11 -57
-7 -7 -54 -12 -132 -13 -111 -2 -122 0 -147 21 -24 19 -39 22 -122 22 -52 1
-104 -4 -115 -10 -11 -6 -33 -13 -49 -17 -25 -5 -32 -13 -42 -52 -14 -57 -46
-103 -85 -123 -16 -9 -29 -22 -29 -31 0 -25 -53 -71 -96 -83 -35 -10 -44 -8
-107 24 -71 36 -97 36 -111 0 -8 -22 -73 -47 -99 -40 -12 4 -34 21 -48 38 -25
29 -29 30 -53 19 -39 -18 -70 -15 -118 11 -38 20 -53 22 -128 17 -101 -6 -140
-25 -140 -68 0 -15 -10 -43 -22 -62 -14 -24 -21 -49 -19 -78 2 -37 -3 -48 -34
-79 -36 -36 -54 -39 -120 -19 -15 5 -25 -2 -40 -27 -13 -21 -34 -37 -60 -45
-22 -7 -50 -22 -62 -34 -18 -17 -30 -19 -66 -14 -36 6 -46 3 -61 -13 -29 -31
-71 -36 -112 -12 -44 26 -48 26 -77 -3 -13 -13 -42 -27 -66 -31 -57 -10 -121
-69 -121 -113 0 -17 -9 -54 -20 -82 -11 -28 -20 -68 -20 -90 0 -37 2 -39 35
-46 19 -3 46 -15 59 -25 23 -18 24 -18 60 1 21 10 45 16 54 13 44 -13 66 -31
88 -70 28 -47 35 -49 192 -56 64 -3 85 0 95 11 18 22 76 44 97 37 11 -3 67 -7
126 -9 93 -2 110 0 126 16 25 25 107 24 156 -1 54 -28 103 -44 137 -45 24 -1
32 5 45 32 19 40 36 52 74 52 49 0 191 -59 238 -99 40 -34 45 -36 109 -33 81
3 116 -9 129 -43 15 -39 36 -41 75 -6 31 27 43 31 93 31 104 0 159 -46 140
-118 -5 -20 -12 -55 -15 -78 -5 -40 -5 -40 35 -52 46 -14 105 -76 122 -128 9
-28 8 -41 -9 -80 -39 -88 -20 -136 38 -95 32 23 89 28 124 10 12 -6 36 -25 53
-41 41 -39 75 -35 89 9 15 45 42 72 89 84 36 10 46 8 95 -16 69 -36 165 -44
242 -21 78 23 82 27 90 98 6 54 12 66 37 86 26 20 29 28 25 62 -5 36 -3 40 28
59 19 12 51 21 73 21 32 0 45 6 67 33 25 30 30 32 97 32 65 1 71 3 96 32 20
24 37 32 75 37 60 8 76 22 85 74 4 28 16 48 37 66 37 31 49 32 82 6 14 -11 31
-20 37 -20 7 0 37 24 67 53 29 28 70 67 89 85 42 38 41 64 -5 122 -47 59 -54
79 -46 129 4 25 6 71 5 101 -8 136 -6 157 19 184 14 15 36 26 50 26 14 0 45
13 68 29 24 16 62 31 89 35 35 4 57 15 81 38 59 57 41 82 -63 91 -73 6 -116
26 -132 62 -24 52 -6 122 32 130 74 15 147 15 182 0 47 -19 59 -10 73 56 10
47 10 52 -11 70 -89 76 -184 89 -278 37 l-58 -33 -55 19 c-33 11 -66 16 -81
12 -33 -8 -78 14 -106 54 -18 26 -21 42 -18 98 l3 66 -41 23 c-23 13 -73 34
-110 48 -38 13 -76 34 -84 46 -28 40 -63 69 -83 69 -11 0 -38 -19 -60 -42z"/>
<path d="M3719 7079 c-12 -24 -15 -84 -9 -224 4 -93 -7 -133 -44 -165 -9 -7
-60 -17 -114 -22 -122 -12 -171 -34 -224 -102 -51 -65 -78 -86 -135 -100 -45
-12 -47 -13 -58 -63 -17 -72 -39 -101 -99 -128 -62 -28 -108 -72 -141 -139
-32 -65 -32 -83 7 -141 37 -55 48 -138 28 -200 -7 -20 -10 -38 -8 -39 4 -4
119 12 162 22 26 6 32 16 51 72 28 86 48 115 99 140 42 20 46 20 145 5 139
-21 167 -19 274 15 107 34 185 38 282 15 201 -49 355 23 419 195 35 96 96 160
151 160 20 0 125 41 223 87 67 32 75 38 96 86 26 59 41 74 111 111 63 33 150
35 290 6 56 -12 134 -20 184 -20 47 1 98 1 113 0 15 0 54 13 87 30 l61 30 0
50 c0 94 -27 119 -135 121 -59 1 -67 -1 -100 -30 -40 -35 -49 -36 -159 -17
-67 12 -86 12 -133 0 -74 -19 -78 -19 -122 21 -38 34 -74 45 -86 25 -3 -5 -21
-10 -38 -10 -46 0 -62 -14 -59 -50 4 -36 -21 -80 -45 -80 -8 0 -31 -9 -49 -21
-33 -20 -35 -20 -71 -2 -23 11 -46 34 -60 58 l-22 40 -78 1 c-75 0 -84 3 -218
67 -144 69 -188 79 -239 56 -33 -15 -68 7 -95 60 -20 39 -21 39 -89 43 -56 3
-76 9 -105 31 l-36 27 -12 -21z"/>
<path d="M8093 6150 c-29 -17 -33 -25 -33 -64 0 -61 -31 -100 -74 -92 -17 4
-51 1 -76 -5 -37 -9 -52 -9 -83 5 -34 14 -42 14 -67 1 -51 -27 -171 -15 -192
18 -4 7 -8 22 -8 35 0 19 -5 22 -38 22 -27 0 -48 8 -76 32 -30 24 -40 28 -46
18 -5 -8 -7 -18 -4 -22 8 -13 -43 -20 -64 -9 -32 17 -41 13 -56 -24 -8 -19
-26 -40 -40 -47 -15 -6 -26 -15 -26 -20 0 -21 32 -67 66 -97 32 -28 42 -32 73
-26 121 21 117 22 175 -36 41 -41 58 -67 70 -109 20 -67 46 -211 46 -255 0
-41 -38 -144 -90 -242 -58 -108 -53 -138 37 -224 26 -25 66 -64 89 -85 22 -21
45 -47 50 -56 9 -16 13 -16 52 -2 116 39 204 -63 206 -237 1 -58 -4 -76 -33
-131 l-35 -64 35 -48 c19 -26 44 -60 55 -76 12 -16 24 -47 28 -68 4 -28 16
-49 41 -71 46 -40 127 -81 160 -81 55 0 112 -47 141 -115 24 -57 22 -165 -5
-242 -32 -95 -30 -105 45 -184 81 -87 107 -141 108 -231 1 -57 -2 -70 -23 -92
-38 -41 -102 -66 -208 -82 -125 -19 -154 -14 -194 36 l-32 39 -31 -26 c-29
-24 -34 -25 -113 -19 -62 5 -99 15 -146 37 -57 27 -68 29 -133 24 -54 -5 -80
-2 -112 11 -41 16 -72 54 -72 87 0 8 -8 25 -19 38 -17 21 -21 22 -59 11 -47
-14 -140 -94 -148 -127 -4 -15 7 -52 30 -104 74 -169 96 -331 55 -420 -42 -94
-162 -205 -241 -223 -61 -13 -75 -30 -83 -101 -12 -100 -47 -147 -145 -190
-77 -35 -108 -71 -119 -138 -11 -66 -45 -189 -60 -218 -20 -37 -42 -41 -137
-26 -120 20 -150 19 -174 -5 -26 -26 -25 -32 5 -68 14 -17 25 -37 25 -45 0
-27 76 -93 197 -170 135 -85 186 -113 224 -122 22 -6 30 -1 47 27 29 47 70 68
134 68 95 0 122 14 210 106 89 92 134 119 225 135 70 12 191 -5 286 -41 63
-24 92 -55 148 -161 17 -31 48 -73 69 -94 l40 -39 15 39 c9 21 19 68 22 105
l6 68 -40 26 c-48 32 -63 61 -63 124 1 61 32 114 132 227 81 90 213 200 363
302 173 117 280 227 315 323 45 122 83 171 184 240 142 95 246 239 261 360 17
141 49 210 128 274 62 51 125 76 233 92 109 16 134 28 134 65 0 40 -26 117
-54 159 -13 20 -29 56 -36 78 -7 29 -23 52 -50 73 -46 37 -58 75 -36 118 20
38 37 47 123 66 37 9 78 18 90 20 12 3 25 14 28 26 4 12 16 30 27 41 21 21 19
46 -11 128 -18 48 -19 48 -89 34 -39 -8 -82 17 -82 47 0 11 11 35 25 53 14 18
25 36 25 41 0 4 -29 4 -65 0 -64 -6 -66 -6 -94 24 -16 17 -39 31 -50 31 -26 0
-71 42 -71 65 0 9 5 25 10 35 6 11 8 43 4 74 -6 49 -10 56 -35 65 -48 17 -55
45 -24 107 15 30 24 62 21 72 -4 10 -24 28 -45 40 -43 25 -51 42 -39 86 10 40
-6 66 -42 66 -20 0 -35 -8 -45 -24 -21 -31 -47 -37 -81 -20 -22 12 -38 13 -80
4 -45 -10 -59 -9 -89 6 -76 36 -114 127 -100 244 l7 59 -36 15 c-46 19 -60 51
-76 171 -7 55 -19 100 -30 116 -27 38 -24 136 4 168 12 13 31 27 44 32 60 23
2 49 -109 49 -99 0 -140 16 -173 69 -37 59 -56 66 -97 36 -18 -14 -36 -25 -40
-25 -3 0 -23 11 -43 25 -46 31 -108 33 -153 5z"/>
<path d="M14521 6139 c-13 -5 -39 -23 -58 -39 -18 -16 -45 -33 -59 -36 -35 -9
-98 3 -142 26 -53 29 -191 28 -238 0 -26 -17 -46 -20 -101 -18 -37 2 -91 -1
-120 -5 -45 -8 -54 -6 -72 12 -12 12 -29 21 -38 21 -16 0 -18 -12 -19 -98 l-1
-97 31 -20 c66 -43 54 -114 -24 -135 -32 -9 -40 -15 -40 -34 0 -18 10 -27 45
-41 53 -20 68 -43 60 -88 -6 -32 -5 -33 37 -42 39 -9 43 -13 46 -43 2 -23 -6
-50 -26 -86 -28 -48 -29 -56 -20 -97 6 -24 14 -51 19 -59 36 -61 34 -112 -6
-150 -23 -22 -28 -22 -132 -15 -88 5 -116 11 -150 31 -58 34 -154 34 -203 0
-50 -34 -91 -40 -135 -22 -53 22 -85 21 -85 -4 0 -47 -41 -90 -85 -90 -22 0
-18 -9 10 -32 38 -30 55 -71 55 -135 0 -83 15 -105 68 -107 37 -2 46 2 63 25
11 15 35 33 55 39 51 17 75 -2 98 -80 16 -54 17 -68 7 -94 -28 -68 -35 -114
-22 -155 6 -22 19 -42 30 -46 31 -10 62 -51 75 -101 13 -52 15 -54 121 -101
30 -14 43 -27 51 -53 7 -20 24 -42 40 -52 61 -36 60 -33 36 -161 -9 -46 -32
-76 -60 -77 -18 0 -75 -30 -84 -44 -18 -27 -7 -36 42 -36 46 0 52 -3 70 -32
24 -39 26 -77 5 -104 -20 -26 -19 -40 5 -64 11 -11 20 -27 20 -35 0 -21 17
-19 47 5 53 41 103 24 156 -54 10 -15 32 -29 48 -33 48 -9 128 -119 129 -176
0 -15 6 -17 34 -12 24 5 45 1 76 -15 23 -12 44 -19 47 -16 3 3 8 27 10 53 5
44 1 54 -40 114 -64 92 -72 128 -58 236 16 127 28 163 71 205 30 30 45 38 74
38 55 0 97 -22 144 -75 54 -61 82 -137 82 -220 0 -75 -1 -74 88 -47 74 24 144
70 250 165 88 81 135 103 232 113 67 7 129 -8 168 -41 60 -50 103 -23 141 88
29 84 47 111 88 139 56 37 100 48 194 49 74 1 94 -2 148 -26 l62 -28 42 23
c61 33 68 40 87 85 12 27 36 54 77 84 56 40 61 48 73 99 13 60 46 102 80 102
20 0 20 1 5 30 -8 16 -15 36 -15 44 0 12 -5 14 -26 6 -61 -23 -114 3 -114 58
0 39 -37 79 -100 110 -46 22 -56 32 -58 56 -4 36 10 46 71 46 46 0 48 1 41 23
-4 12 -13 31 -20 42 -17 24 -18 67 -2 83 7 7 34 12 60 12 45 0 49 2 65 37 24
49 45 61 83 46 l30 -11 0 41 c0 25 8 54 20 72 25 38 25 52 0 65 -15 8 -27 7
-49 -5 -45 -23 -57 -19 -109 29 -68 63 -102 78 -161 70 -46 -6 -49 -5 -70 25
-19 26 -29 31 -65 31 -66 0 -77 24 -51 107 7 21 5 22 -24 17 -46 -10 -61 8
-61 75 -1 44 -6 62 -24 85 -21 26 -28 28 -64 23 -31 -5 -43 -3 -56 12 -17 19
-14 65 5 77 5 3 9 12 9 20 0 22 -38 17 -60 -8 -12 -13 -28 -31 -37 -40 -21
-22 -56 -23 -118 -2 -44 15 -51 15 -79 1 -68 -33 -110 -27 -122 18 -8 33 -39
33 -84 0 -39 -29 -62 -31 -84 -9 -28 28 -20 72 19 107 l36 31 -46 43 c-42 39
-46 46 -45 85 3 63 1 68 -14 68 -8 0 -23 11 -33 25 -18 25 -19 26 -62 10 -64
-22 -108 -19 -134 9 -12 12 -39 29 -59 35 -21 7 -40 17 -43 22 -8 11 -43 11
-74 -2z"/>
<path d="M9490 6101 c0 -11 -14 -31 -32 -46 -25 -21 -39 -26 -67 -22 -41 5
-91 22 -141 47 -66 33 -99 35 -129 6 l-26 -25 -145 9 c-166 12 -175 8 -175
-63 0 -38 -3 -43 -39 -62 -35 -18 -38 -24 -40 -65 -2 -27 4 -56 14 -75 10 -16
23 -73 30 -125 14 -102 23 -130 44 -130 7 0 26 -10 41 -22 27 -21 27 -24 22
-91 -8 -96 7 -160 45 -192 33 -28 49 -30 112 -13 37 10 48 9 67 -4 21 -14 24
-13 43 9 28 32 94 42 129 18 34 -22 51 -73 37 -109 -9 -24 -7 -28 24 -43 58
-27 75 -108 35 -162 -21 -29 -19 -51 5 -51 40 0 79 -125 56 -179 -15 -36 -7
-51 26 -51 15 0 36 -12 53 -30 25 -28 31 -30 73 -24 62 9 92 0 106 -31 13 -28
7 -51 -21 -82 -25 -28 -16 -40 18 -25 65 30 105 6 134 -80 27 -80 28 -139 1
-163 -11 -10 -20 -23 -20 -30 0 -25 -48 -55 -106 -66 -157 -28 -171 -44 -101
-113 25 -24 48 -57 52 -74 3 -17 24 -64 45 -105 21 -40 41 -93 45 -116 6 -38
10 -42 29 -36 11 4 56 9 99 12 67 5 87 2 155 -22 90 -33 152 -35 231 -7 l54
18 59 116 c55 106 64 118 99 132 77 31 144 13 171 -46 9 -18 19 -64 22 -102 4
-38 12 -78 19 -90 10 -19 12 -15 17 35 5 58 26 93 61 104 9 3 27 21 38 40 36
62 134 84 171 40 17 -20 36 -19 60 5 23 23 67 26 94 5 28 -22 43 -18 50 10 8
33 41 65 65 65 11 0 33 -11 49 -25 17 -14 40 -25 52 -25 26 0 61 -18 76 -38
10 -13 22 -12 94 14 45 16 82 34 81 39 0 6 -14 13 -30 18 -60 15 -47 65 24 92
35 14 45 23 45 40 0 39 37 75 76 75 38 0 54 21 37 49 -5 9 -37 31 -71 49 -35
18 -70 44 -78 58 -23 34 -10 87 30 131 27 30 41 36 84 41 40 3 55 10 67 28 9
14 25 24 40 24 38 0 47 28 23 73 -14 28 -19 54 -16 91 l3 51 -39 0 c-40 1 -76
30 -76 64 0 36 23 95 46 118 28 28 54 20 78 -25 l15 -27 1 38 c0 42 -23 107
-39 107 -6 0 -15 18 -21 40 l-11 40 -55 0 c-45 0 -59 4 -79 25 -30 29 -32 68
-5 95 24 24 25 39 5 66 -33 44 -12 83 51 93 l36 6 1 107 2 107 -34 29 c-31 25
-34 33 -33 79 2 69 -21 99 -69 89 -24 -4 -39 -15 -51 -36 -15 -27 -22 -30 -67
-30 -74 0 -81 -5 -75 -53 5 -39 3 -43 -30 -66 -32 -21 -36 -28 -36 -68 0 -102
-69 -147 -231 -147 -86 -1 -102 2 -156 28 -55 26 -63 27 -89 15 -18 -9 -31
-25 -36 -46 -5 -17 -21 -41 -36 -53 -40 -33 -91 -22 -147 29 -25 23 -51 41
-59 41 -8 0 -32 -11 -52 -25 -46 -31 -75 -32 -110 -2 -33 29 -36 82 -6 147 22
48 19 68 -19 119 -14 19 -37 33 -65 40 -26 7 -48 19 -55 32 -12 24 -4 121 13
153 16 31 -22 56 -84 56 -42 0 -56 -5 -85 -30 -51 -45 -98 -37 -129 22 -16 30
-17 31 -77 25 -69 -6 -115 8 -158 49 -32 30 -160 84 -200 84 -22 0 -29 -5 -29
-19z"/>
<path d="M12232 5134 c-7 -3 -22 -24 -33 -46 -14 -28 -32 -45 -62 -58 -23 -11
-55 -35 -70 -55 -15 -19 -35 -35 -44 -35 -24 0 -127 100 -133 129 -4 22 -11
26 -45 29 -38 3 -39 3 -22 -15 9 -11 23 -38 32 -62 31 -90 11 -151 -51 -151
-28 0 -36 5 -45 27 -8 22 -12 24 -19 13 -6 -8 -10 -29 -10 -47 0 -31 1 -32 34
-26 26 4 39 0 56 -17 19 -19 22 -30 17 -75 -4 -41 -1 -59 14 -84 10 -17 19
-45 19 -61 0 -34 -36 -79 -67 -83 -13 -2 -33 -13 -46 -25 -16 -16 -36 -22 -66
-22 -44 0 -83 -29 -94 -69 -7 -27 0 -34 72 -72 92 -48 124 -109 83 -159 -11
-13 -33 -23 -60 -27 -36 -5 -42 -9 -42 -30 0 -36 -16 -59 -50 -73 l-31 -13 21
-19 c25 -24 26 -62 1 -87 -21 -21 -163 -71 -202 -71 -14 0 -34 8 -43 19 -9 10
-33 21 -53 24 -20 4 -48 18 -63 32 -30 29 -45 21 -52 -25 -2 -16 -14 -30 -33
-39 -26 -13 -33 -12 -68 8 l-39 23 -19 -20 c-35 -38 -56 -37 -131 4 -35 19
-75 4 -89 -33 -5 -16 -28 -40 -49 -55 -38 -26 -39 -30 -39 -81 l1 -54 56 -18
c66 -20 155 -102 166 -152 16 -71 -38 -159 -123 -199 -39 -20 -128 -24 -223
-11 l-58 7 16 -34 c25 -52 12 -97 -47 -162 -27 -30 -49 -59 -49 -65 0 -7 50
-9 148 -7 179 4 193 -2 285 -112 76 -92 131 -123 228 -128 53 -3 72 0 100 17
24 15 51 21 90 21 30 0 104 9 164 20 60 11 125 20 144 20 20 0 56 10 81 21 56
26 151 35 208 19 51 -13 118 -71 162 -140 17 -26 38 -51 46 -54 31 -12 69 18
102 82 18 34 45 70 60 79 15 9 47 35 70 56 24 22 78 55 120 74 101 47 171 45
286 -10 57 -27 91 -37 127 -37 54 0 60 4 97 75 48 89 106 94 232 19 85 -50
123 -55 191 -24 79 36 169 23 246 -36 l33 -25 56 40 c33 24 76 44 107 51 71
15 92 31 127 98 16 31 37 69 46 83 15 24 15 30 0 82 -20 70 -54 110 -105 126
-30 8 -49 23 -71 56 -17 25 -37 45 -44 45 -6 0 -27 -11 -46 -25 -19 -14 -41
-25 -50 -25 -19 0 -60 40 -60 58 0 6 -9 16 -19 22 -31 16 -34 45 -12 96 29 64
17 82 -51 86 -45 3 -55 7 -67 30 -24 42 4 92 66 119 27 12 55 25 63 29 8 4 18
25 22 46 3 21 9 48 13 59 5 17 -1 24 -30 38 -26 12 -41 29 -52 56 -13 34 -23
42 -74 60 -68 25 -93 53 -109 120 -9 40 -17 52 -41 62 -47 19 -73 79 -67 154
3 33 13 76 22 94 16 30 16 35 2 66 -9 18 -16 40 -16 49 0 28 -34 17 -63 -19
-27 -33 -30 -34 -87 -31 -32 1 -67 9 -76 17 -27 22 -44 74 -44 134 0 31 -4 65
-10 75 -16 30 -70 57 -155 78 -122 31 -207 35 -305 16 -47 -9 -110 -18 -140
-21 -71 -7 -88 10 -98 98 -6 59 -9 64 -32 66 -14 1 -31 -1 -38 -3z"/>
<path d="M12444 2700 c4 -36 10 -88 13 -117 5 -51 6 -51 48 -62 56 -14 85 -50
85 -105 0 -66 -26 -95 -147 -164 -147 -84 -244 -121 -351 -133 -48 -5 -105
-16 -127 -24 -22 -8 -60 -17 -85 -21 -37 -5 -56 -17 -105 -64 -86 -82 -138
-119 -290 -205 -74 -42 -145 -89 -159 -105 -26 -31 -66 -128 -66 -160 0 -22
45 -60 70 -60 10 0 48 14 86 32 160 75 317 39 479 -110 145 -133 175 -138 303
-49 42 30 88 58 100 62 38 11 90 -4 128 -37 64 -57 76 -104 52 -219 -11 -55
-10 -60 31 -177 38 -106 43 -130 39 -186 -3 -51 -9 -71 -33 -102 -30 -39 -30
-40 -30 -169 0 -119 -2 -133 -23 -162 -14 -19 -40 -38 -70 -49 -72 -26 -79
-36 -59 -78 22 -46 49 -63 124 -75 85 -13 124 -34 164 -87 49 -65 65 -67 239
-22 120 32 138 41 257 137 54 43 130 98 168 123 100 65 116 83 175 197 42 83
62 110 99 137 66 48 152 80 319 118 157 36 276 84 332 133 50 43 70 52 151 63
41 6 83 17 95 25 20 13 22 20 17 74 -7 79 7 111 71 159 113 87 164 98 269 58
111 -42 146 -64 194 -126 25 -33 49 -60 53 -60 4 0 31 16 59 35 72 50 128 60
257 45 57 -7 116 -9 129 -6 54 14 135 112 135 164 0 11 -7 36 -15 55 -38 90
-5 164 111 252 43 33 85 73 93 89 22 46 1 57 -126 66 -59 5 -124 13 -143 19
-19 6 -58 11 -86 11 -60 0 -92 -20 -125 -80 -27 -48 -94 -80 -168 -80 -62 0
-106 33 -121 91 -9 33 -14 38 -25 29 -8 -7 -23 -37 -32 -68 -20 -63 -43 -88
-181 -202 -156 -129 -212 -145 -313 -92 -31 16 -88 33 -134 41 -104 17 -167
44 -209 92 -48 52 -54 93 -26 185 12 42 23 105 23 142 l2 67 -48 32 c-33 22
-64 33 -105 38 -61 7 -169 30 -211 47 -40 15 -70 48 -102 111 -16 31 -33 57
-37 57 -4 0 -27 -7 -52 -16 -89 -31 -157 12 -147 91 3 22 9 50 13 63 6 23 6
23 -47 15 -130 -18 -167 -7 -274 85 -37 31 -107 63 -180 80 -16 4 -62 4 -103
-1 -136 -16 -225 22 -370 158 l-65 60 7 -65z"/>
</g>
</svg>
